{
  "accessors": [
    {
      "bufferView": 2,
      "componentType": 5126,
      "count": 38963,
      "max": [
        0.23068299889564514,
        0.2269590049982071,
        0.4955050051212311
      ],
      "min": [
        -0.16890299320220947,
        -0.21588300168514252,
        -0.5026699900627136
      ],
      "type": "VEC3"
    },
    {
      "bufferView": 2,
      "byteOffset": 467556,
      "componentType": 5126,
      "count": 38963,
      "max": [
        0.9999749660491943,
        0.9999872446060181,
        0.9999805688858032
      ],
      "min": [
        -0.9999560117721558,
        -0.9999434947967529,
        -1.0
      ],
      "type": "VEC3"
    },
    {
      "bufferView": 1,
      "componentType": 5126,
      "count": 38963,
      "max": [
        0.9988800287246704,
        0.9955480098724365
      ],
      "min": [
        0.001120000029914081,
        0.001120000029914081
      ],
      "type": "VEC2"
    },
    {
      "bufferView": 0,
      "componentType": 5125,
      "count": 184356,
      "type": "SCALAR"
    }
  ],
  "asset": {
    "extras": {
      "author": "SudoWriter (https://sketchfab.com/SudoWriter)",
      "license": "CC-BY-4.0 (http://creativecommons.org/licenses/by/4.0/)",
      "source": "https://sketchfab.com/3d-models/test-tripo3d-ai-mid-3-7a6ed8ae01b5475da9a0a6299ea903ce",
      "title": "Test tripo3d AI - mid 3"
    },
    "generator": "Sketchfab-16.15.0",
    "version": "2.0"
  },
  "bufferViews": [
    {
      "buffer": 0,
      "byteLength": 737424,
      "name": "floatBufferViews",
      "target": 34963
    },
    {
      "buffer": 0,
      "byteLength": 311704,
      "byteOffset": 737424,
      "byteStride": 8,
      "name": "floatBufferViews",
      "target": 34962
    },
    {
      "buffer": 0,
      "byteLength": 935112,
      "byteOffset": 1049128,
      "byteStride": 12,
      "name": "floatBufferViews",
      "target": 34962
    }
  ],
  "buffers": [
    {
      "byteLength": 1984240,
      "uri": "scene.bin"
    }
  ],
  "images": [
    {
      "uri": "textures/New_Material_baseColor.png"
    }
  ],
  "materials": [
    {
      "doubleSided": true,
      "name": "New_Material",
      "pbrMetallicRoughness": {
        "baseColorTexture": {
          "index": 0
        },
        "metallicFactor": 0.0,
        "roughnessFactor": 0.8011823178082373
      }
    }
  ],
  "meshes": [
    {
      "name": "Object_0",
      "primitives": [
        {
          "attributes": {
            "NORMAL": 1,
            "POSITION": 0,
            "TEXCOORD_0": 2
          },
          "indices": 3,
          "material": 0,
          "mode": 4
        }
      ]
    }
  ],
  "nodes": [
    {
      "children": [
        1
      ],
      "matrix": [
        1.0,
        0.0,
        0.0,
        0.0,
        0.0,
        2.220446049250313e-16,
        -1.0,
        0.0,
        0.0,
        1.0,
        2.220446049250313e-16,
        0.0,
        0.0,
        0.0,
        0.0,
        1.0
      ],
      "name": "Sketchfab_model"
    },
    {
      "children": [
        2
      ],
      "name": "output.obj.cleaner.materialmerger.gles"
    },
    {
      "mesh": 0,
      "name": "Object_2"
    }
  ],
  "samplers": [
    {
      "magFilter": 9729,
      "minFilter": 9987,
      "wrapS": 10497,
      "wrapT": 10497
    }
  ],
  "scene": 0,
  "scenes": [
    {
      "name": "Sketchfab_Scene",
      "nodes": [
        0
      ]
    }
  ],
  "textures": [
    {
      "sampler": 0,
      "source": 0
    }
  ]
}
